<svg width="778" height="257" viewBox="0 0 778 257" fill="none" xmlns="http://www.w3.org/2000/svg">
<path d="M187.671 101.559H202.504V43.4442H221.909V29.4236H168.469V43.4442H187.671V101.559Z" fill="white"/>
<path d="M221.931 101.558H235.85V77.2764C235.85 68.8434 240.219 63.7634 246.823 63.7634C249.159 63.7634 250.988 64.1699 253.122 64.8814V50.7589C251.395 50.2509 249.972 50.1494 248.448 50.1494C242.759 50.1494 237.577 53.9084 235.85 58.8869V50.7589H221.931V101.558Z" fill="white"/>
<path d="M279.837 102.676C286.848 102.676 292.131 99.12 294.468 95.869V101.559H308.387V50.759H294.468V56.4485C292.131 53.1975 286.848 49.6416 279.837 49.6416C266.325 49.6416 255.962 61.8335 255.962 76.1585C255.962 90.484 266.325 102.676 279.837 102.676ZM282.784 89.976C275.062 89.976 269.982 84.185 269.982 76.1585C269.982 68.1325 275.062 62.3415 282.784 62.3415C290.505 62.3415 295.585 68.1325 295.585 76.1585C295.585 84.185 290.505 89.976 282.784 89.976Z" fill="white"/>
<path d="M341.526 102.676C348.536 102.676 353.819 99.12 356.156 95.869V101.559H370.075V25.3596H356.156V56.4485C353.819 53.1975 348.536 49.6416 341.526 49.6416C328.014 49.6416 317.651 61.8335 317.651 76.1585C317.651 90.484 328.014 102.676 341.526 102.676ZM344.472 89.976C336.751 89.976 331.671 84.185 331.671 76.1585C331.671 68.1325 336.751 62.3415 344.472 62.3415C352.194 62.3415 357.274 68.1325 357.274 76.1585C357.274 84.185 352.194 89.976 344.472 89.976Z" fill="white"/>
<path d="M389.5 42.4281C394.478 42.4281 398.441 38.4657 398.441 33.5891C398.441 28.7124 394.478 24.75 389.5 24.75C384.725 24.75 380.661 28.7124 380.661 33.5891C380.661 38.4657 384.725 42.4281 389.5 42.4281ZM382.591 101.559H396.51V50.759H382.591V101.559Z" fill="white"/>
<path d="M408.86 101.559H422.779V76.7685C422.779 67.015 427.554 62.3415 434.056 62.3415C439.847 62.3415 442.997 66.8115 442.997 74.127V101.559H456.916V71.79C456.916 58.582 449.601 49.6416 437.307 49.6416C430.703 49.6416 425.522 52.4865 422.779 56.5505V50.759H408.86V101.559Z" fill="white"/>
<path d="M492.336 88.3505C485.326 88.3505 479.433 83.0675 479.433 75.346C479.433 67.523 485.326 62.3415 492.336 62.3415C499.346 62.3415 505.24 67.523 505.24 75.346C505.24 83.0675 499.346 88.3505 492.336 88.3505ZM490.711 123.809C506.255 123.809 518.04 115.883 518.04 97.596V50.759H504.12V56.4485C501.38 52.4865 495.892 49.6416 489.39 49.6416C476.08 49.6416 465.413 61.0205 465.413 75.346C465.413 89.5695 476.08 100.949 489.39 100.949C495.892 100.949 501.38 98.0025 504.12 94.243V97.6975C504.12 105.826 498.737 111.617 490.507 111.617C484.818 111.617 479.128 109.686 474.658 105.317L467.038 115.68C472.829 121.268 481.871 123.809 490.711 123.809Z" fill="white"/>
<path d="M547.47 101.558H560.575L590.445 29.4233H574.19L554.075 79.5113L533.655 29.4233H517.7L547.47 101.558Z" fill="white"/>
<path d="M603.215 42.4281C608.195 42.4281 612.16 38.4657 612.16 33.5891C612.16 28.7124 608.195 24.75 603.215 24.75C598.44 24.75 594.38 28.7124 594.38 33.5891C594.38 38.4657 598.44 42.4281 603.215 42.4281ZM596.31 101.559H610.23V50.759H596.31V101.559Z" fill="white"/>
<path d="M646.25 102.676C656.92 102.676 665.045 98.2055 669.82 91.297L659.46 83.5755C657.12 87.1315 652.75 89.976 646.35 89.976C639.645 89.976 633.65 86.217 632.84 79.41H670.835C671.14 77.2765 671.04 75.854 671.04 74.635C671.04 58.074 659.355 49.6416 646.045 49.6416C630.605 49.6416 619.325 61.122 619.325 76.1585C619.325 92.2115 631.11 102.676 646.25 102.676ZM633.345 69.961C634.67 63.7635 640.46 61.122 645.64 61.122C650.82 61.122 655.9 63.8655 657.12 69.961H633.345Z" fill="white"/>
<path d="M723.185 101.559H737.005L753.77 50.759H738.835L729.285 83.2705L718.92 50.759H708.25L697.99 83.2705L688.34 50.759H673.505L690.37 101.559H704.19L713.635 72.7045L723.185 101.559Z" fill="white"/>
<path fill-rule="evenodd" clip-rule="evenodd" d="M56.142 101.593H29.4077V56.1445H0V29.4102H56.142V101.593ZM96.2435 45.4508C96.2435 54.3095 89.062 61.4915 80.203 61.4915C71.344 61.4915 64.1625 54.3095 64.1625 45.4508C64.1625 36.5918 71.344 29.4102 80.203 29.4102C89.062 29.4102 96.2435 36.5918 96.2435 45.4508ZM80.203 101.593L110.948 29.4102H143.029L112.284 101.593H80.203Z" fill="white"/>
<path fill-rule="evenodd" clip-rule="evenodd" d="M5.79688 174.243V226.347H38.747V216.219H16.4378V174.243H5.79688ZM61.3525 227.154C71.9935 227.154 80.653 218.714 80.653 208C80.653 197.286 71.9935 188.846 61.3525 188.846C50.712 188.846 42.0523 197.286 42.0523 208C42.0523 218.714 50.712 227.154 61.3525 227.154ZM61.3525 217.76C56.069 217.76 52.1795 213.651 52.1795 208C52.1795 202.349 56.069 198.24 61.3525 198.24C66.6365 198.24 70.4525 202.349 70.4525 208C70.4525 213.651 66.6365 217.76 61.3525 217.76ZM104.782 227.154C115.423 227.154 124.082 218.714 124.082 208C124.082 197.286 115.423 188.846 104.782 188.846C94.141 188.846 85.4815 197.286 85.4815 208C85.4815 218.714 94.141 227.154 104.782 227.154ZM104.782 217.76C99.4985 217.76 95.609 213.651 95.609 208C95.609 202.349 99.4985 198.24 104.782 198.24C110.066 198.24 113.882 202.349 113.882 208C113.882 213.651 110.066 217.76 104.782 217.76ZM131.333 171.307V226.347H141.386V209.468L156.357 226.347H168.759L150.853 206.165L165.384 189.654H153.275L141.386 203.157V171.307H131.333ZM191.121 198.46V226.347H201.175V198.46H211.523V189.654H201.175V186.131C201.175 181.655 203.083 179.893 207.413 179.893C209.027 179.893 210.348 180.114 211.523 180.554V171.674C209.908 171.16 207.927 170.867 205.138 170.867C197.359 170.867 191.121 175.931 191.121 184.884V189.654H183.709V198.46H191.121ZM222.457 183.636C226.053 183.636 228.915 180.774 228.915 177.251C228.915 173.729 226.053 170.867 222.457 170.867C219.008 170.867 216.072 173.729 216.072 177.251C216.072 180.774 219.008 183.636 222.457 183.636ZM227.521 189.654H217.467V226.347H227.521V189.654ZM247.237 189.654H237.183V226.347H247.237V208.807C247.237 202.79 250.392 199.047 255.162 199.047C256.777 199.047 258.171 199.341 259.712 199.854V189.654C258.465 189.287 257.364 189.213 256.337 189.213C252.227 189.213 248.484 191.929 247.237 195.525V189.654ZM277.676 227.154C285.529 227.154 291.62 222.31 291.62 215.192C291.62 208.807 287.583 205.578 280.979 203.817L277.53 202.79C274.447 201.982 273.934 200.735 273.934 199.634C273.934 197.946 275.842 197.139 277.603 197.139C280.025 197.139 282.153 198.24 283.841 200.368L290.445 195.011C287.657 190.975 283.327 188.846 277.75 188.846C269.971 188.846 264.1 193.176 263.953 199.928C263.806 205.578 267.329 209.908 274.08 211.669L276.796 212.33C280.832 213.431 281.713 214.311 281.713 215.852C281.713 217.687 279.731 218.494 277.676 218.494C274.154 218.494 271.072 216.953 269.457 214.238L262.559 220.109C265.714 224.879 271.218 227.154 277.676 227.154ZM316.073 226.787C318.862 226.787 320.843 226.493 322.458 225.98V217.1C321.284 217.54 319.963 217.76 318.348 217.76C314.018 217.76 312.11 215.999 312.11 211.523V198.46H322.458V189.654H312.11V179.453H302.056V189.654H294.645V198.46H302.056V213.504C302.056 222.457 308.294 226.787 316.073 226.787ZM346.877 227.244H359.576L381.632 175.112H368.933L346.877 227.244ZM416.153 226.347V184.37H402.284V174.243H440.884V184.37H426.868V226.347H416.153ZM446.65 226.347V171.307H456.704V193.837C458.612 190.901 462.428 188.846 467.198 188.846C476.078 188.846 481.362 195.304 481.362 204.845V226.347H471.308V206.532C471.308 201.249 469.033 198.02 464.85 198.02C460.227 198.02 456.704 201.395 456.704 208.44V226.347H446.65ZM488.233 208C488.233 197.139 496.379 188.846 507.535 188.846C517.145 188.846 525.585 195.011 525.585 206.899C525.585 207.78 525.585 208.807 525.44 210.348H497.993C498.58 215.265 502.91 217.981 507.755 217.981C512.305 217.981 515.605 215.852 517.22 213.357L524.705 218.935C521.33 223.851 515.385 227.154 507.68 227.154C496.746 227.154 488.233 219.595 488.233 208ZM507.24 197.139C503.5 197.139 499.314 199.047 498.36 203.524H515.535C514.65 199.194 510.985 197.139 507.24 197.139ZM533.01 189.654H543.06V193.837C544.97 190.901 548.785 188.846 553.555 188.846C562.435 188.846 567.72 195.304 567.72 204.845V226.347H557.665V206.532C557.665 201.249 555.39 198.02 551.205 198.02C546.585 198.02 543.06 201.395 543.06 208.44V226.347H533.01V189.654ZM593.635 226.347V171.307H603.69V226.347H593.635ZM610.995 208C610.995 197.139 619.145 188.846 630.295 188.846C639.91 188.846 648.35 195.011 648.35 206.899C648.35 207.78 648.35 208.807 648.205 210.348H620.755C621.345 215.265 625.675 217.981 630.515 217.981C635.065 217.981 638.37 215.852 639.985 213.357L647.47 218.935C644.095 223.851 638.15 227.154 630.445 227.154C619.51 227.154 610.995 219.595 610.995 208ZM630.005 197.139C626.26 197.139 622.08 199.047 621.125 203.524H638.295C637.415 199.194 633.745 197.139 630.005 197.139ZM653.425 208C653.425 197.579 660.91 188.846 670.67 188.846C675.73 188.846 679.62 191.415 681.235 193.763V189.654H691.29V226.347H681.235V222.237C679.62 224.585 675.73 227.154 670.67 227.154C660.91 227.154 653.425 218.421 653.425 208ZM682.045 208C682.045 202.276 678.3 198.02 672.795 198.02C667.295 198.02 663.55 202.276 663.55 208C663.55 213.724 667.295 217.981 672.795 217.981C678.3 217.981 682.045 213.724 682.045 208ZM701.065 241.684V189.654H711.12V193.763C712.805 191.415 716.695 188.846 721.76 188.846C731.52 188.846 739.005 197.579 739.005 208C739.005 218.421 731.52 227.154 721.76 227.154C716.695 227.154 712.805 224.585 711.12 222.237V241.684H701.065ZM728.805 208C728.805 202.276 725.06 198.02 719.555 198.02C714.055 198.02 710.31 202.276 710.31 208C710.31 213.724 714.055 217.981 719.555 217.981C725.06 217.981 728.805 213.724 728.805 208ZM756.31 227.223C760.74 227.223 764.33 223.632 764.33 219.203C764.33 214.773 760.74 211.182 756.31 211.182C751.88 211.182 748.29 214.773 748.29 219.203C748.29 223.632 751.88 227.223 756.31 227.223Z" fill="white"/>
</svg>
